<svg height="32px" xmlns="http://www.w3.org/2000/svg" xmlns:xlink="http://www.w3.org/1999/xlink" viewBox="0 0 512 512" xml:space="preserve"><path d="M256,89.187c-91.984,0-166.813,74.829-166.813,166.813c0,91.978,74.829,166.813,166.813,166.813  c91.978,0,166.813-74.835,166.813-166.813C422.813,164.016,347.978,89.187,256,89.187z M256,389.781  c-73.767,0-133.781-60.014-133.781-133.781S182.233,122.219,256,122.219S389.781,182.233,389.781,256  C389.781,329.772,329.767,389.781,256,389.781z"/><path d="M256,0c-9.122,0-16.516,7.394-16.516,16.516v164.06c0,9.122,7.394,16.516,16.516,16.516s16.516-7.394,16.516-16.516  V16.516C272.516,7.394,265.122,0,256,0z"/><path d="M256,314.908c-9.122,0-16.516,7.394-16.516,16.516v164.06c0,9.122,7.394,16.516,16.516,16.516s16.516-7.394,16.516-16.516  v-164.06C272.516,322.301,265.122,314.908,256,314.908z"/><path d="M495.484,239.484h-164.06c-9.122,0-16.516,7.394-16.516,16.516s7.394,16.516,16.516,16.516h164.06  c9.122,0,16.516-7.394,16.516-16.516S504.606,239.484,495.484,239.484z"/><path d="M180.576,239.484H16.516C7.394,239.484,0,246.878,0,256s7.394,16.516,16.516,16.516h164.06  c9.122,0,16.516-7.394,16.516-16.516S189.699,239.484,180.576,239.484z"/></svg>