<svg enable-background="new 0 0 609.619 609.619" height="32px" viewBox="0 0 609.619 609.619" xmlns="http://www.w3.org/2000/svg"><g><g id="Page-1_81_"><g id="_x30_82---C4-Explosive"><path id="Shape_93_" d="m262.767 494.001h84.085c34.829 0 63.064-28.235 63.064-63.064v-168.17h-210.213v168.171c0 34.829 28.234 63.063 63.064 63.063zm94.596-210.213h21.021c5.805 0 10.511 4.706 10.511 10.511s-4.706 10.511-10.511 10.511h-21.021c-5.805 0-10.511-4.706-10.511-10.511s4.706-10.511 10.511-10.511zm0 42.043h21.021c5.805 0 10.511 4.706 10.511 10.511s-4.706 10.511-10.511 10.511h-21.021c-5.805 0-10.511-4.706-10.511-10.511s4.706-10.511 10.511-10.511zm0 42.042h21.021c5.805 0 10.511 4.706 10.511 10.511s-4.706 10.511-10.511 10.511h-21.021c-5.805 0-10.511-4.706-10.511-10.511s4.706-10.511 10.511-10.511zm0 42.043h21.021c5.805 0 10.511 4.706 10.511 10.511s-4.706 10.511-10.511 10.511h-21.021c-5.805 0-10.511-4.706-10.511-10.511s4.706-10.511 10.511-10.511zm-63.064-126.128h21.021c5.805 0 10.511 4.706 10.511 10.511s-4.706 10.511-10.511 10.511h-21.021c-5.805 0-10.511-4.706-10.511-10.511s4.706-10.511 10.511-10.511zm0 42.043h21.021c5.805 0 10.511 4.706 10.511 10.511s-4.706 10.511-10.511 10.511h-21.021c-5.805 0-10.511-4.706-10.511-10.511s4.706-10.511 10.511-10.511zm0 42.042h21.021c5.805 0 10.511 4.706 10.511 10.511s-4.706 10.511-10.511 10.511h-21.021c-5.805 0-10.511-4.706-10.511-10.511s4.706-10.511 10.511-10.511zm0 42.043h21.021c5.805 0 10.511 4.706 10.511 10.511s-4.706 10.511-10.511 10.511h-21.021c-5.805 0-10.511-4.706-10.511-10.511s4.706-10.511 10.511-10.511zm-21.022 42.043h63.064c5.805 0 10.511 4.706 10.511 10.511s-4.706 10.511-10.511 10.511h-63.064c-5.805 0-10.511-4.706-10.511-10.511.001-5.806 4.706-10.511 10.511-10.511zm-42.042-168.171h21.021c5.805 0 10.511 4.706 10.511 10.511s-4.706 10.511-10.511 10.511h-21.021c-5.805 0-10.511-4.706-10.511-10.511s4.706-10.511 10.511-10.511zm0 42.043h21.021c5.805 0 10.511 4.706 10.511 10.511s-4.706 10.511-10.511 10.511h-21.021c-5.805 0-10.511-4.706-10.511-10.511s4.706-10.511 10.511-10.511zm0 42.042h21.021c5.805 0 10.511 4.706 10.511 10.511s-4.706 10.511-10.511 10.511h-21.021c-5.805 0-10.511-4.706-10.511-10.511s4.706-10.511 10.511-10.511zm0 42.043h21.021c5.805 0 10.511 4.706 10.511 10.511s-4.706 10.511-10.511 10.511h-21.021c-5.805 0-10.511-4.706-10.511-10.511s4.706-10.511 10.511-10.511z"/><path id="Path_622_" clip-rule="evenodd" d="m262.767 63.064v31.532h31.532c-.052-17.393-14.139-31.48-31.532-31.532z" fill-rule="evenodd"/><path id="Path_621_" clip-rule="evenodd" d="m525.533 199.703h-73.575v31.532c-.055 13.315-8.468 25.16-21.021 29.598v170.105c-.003 14.774-3.927 29.282-11.373 42.043h105.969z" fill-rule="evenodd"/><path id="Path_620_" clip-rule="evenodd" d="m178.681 430.937v-170.104c-12.553-4.438-20.966-16.283-21.021-29.598v-31.532h-73.575v273.277h105.969c-7.446-12.761-11.37-27.269-11.373-42.043z" fill-rule="evenodd"/><path id="Shape_92_" d="m430.937 231.235v-105.107c0-5.805-4.706-10.511-10.511-10.511h-231.234c-5.805 0-10.511 4.706-10.511 10.511v105.107c0 5.805 4.706 10.511 10.511 10.511h231.235c5.805-.001 10.51-4.706 10.51-10.511zm-228.186-81.038 10.511-10.511c4.121-4.121 10.804-4.121 14.925 0s4.121 10.804 0 14.925l-10.511 10.511c-4.145 4.065-10.78 4.065-14.925 0-4.099-4.13-4.099-10.794 0-14.925zm88.5 4.415-63.064 63.064c-4.145 4.065-10.78 4.065-14.925 0-4.099-4.131-4.099-10.794 0-14.925l63.064-63.064c4.121-4.121 10.804-4.121 14.925 0s4.121 10.803 0 14.925z"/><g clip-rule="evenodd" fill-rule="evenodd"><path id="Path_619_" d="m399.405 94.596h21.021c13.32.069 25.171 8.473 29.64 21.021h75.467v-21.021c-.052-17.393-14.139-31.48-31.532-31.532h-94.596z"/><path id="Path_618_" d="m315.32 94.596h21.021v-29.64c-12.568 4.443-20.984 16.31-21.021 29.64z"/><path id="Path_617_" d="m525.533 536.044c5.805 0 10.511-4.706 10.511-10.511v-21.021c0-5.805-4.706-10.511-10.511-10.511h-123.248c-15.291 13.541-35.009 21.018-55.433 21.021h-84.085c-20.425-.003-40.142-7.48-55.433-21.021h-123.249c-5.805 0-10.511 4.706-10.511 10.511v21.021c0 5.805 4.706 10.511 10.511 10.511z"/><path id="Path_616_" d="m494.001 609.619c17.415 0 31.532-14.117 31.532-31.532v-21.021h-210.213v21.021c0 17.415 14.117 31.532 31.532 31.532z"/><path id="Path_615_" d="m84.085 578.087c0 17.415 14.117 31.532 31.532 31.532h147.149c17.415 0 31.532-14.117 31.532-31.532v-21.021h-210.213z"/><path id="Path_614_" d="m536.044 168.171v-21.021c0-5.805-4.706-10.511-10.511-10.511h-73.575v42.043h73.575c5.805-.001 10.511-4.706 10.511-10.511z"/><path id="Path_613_" d="m84.085 94.596v21.021h75.467c4.469-12.548 16.32-20.953 29.64-21.021h10.511v-31.532h-84.085c-17.394.052-31.481 14.139-31.533 31.532z"/><path id="Path_612_" d="m73.575 147.149v21.021c0 5.805 4.706 10.511 10.511 10.511h73.575v-42.043h-73.576c-5.805.001-10.51 4.706-10.51 10.511z"/><path id="Path_611_" d="m241.745 94.596v-52.553c0-23.22-18.823-42.043-42.042-42.043h-21.021c-23.22 0-42.043 18.823-42.043 42.043h21.021c0-11.61 9.412-21.021 21.021-21.021h21.021c11.61 0 21.021 9.412 21.021 21.021v52.553z"/><path id="Path_610_" d="m420.427 0h-21.021c-23.22 0-42.043 18.823-42.043 42.043v52.553h21.021v-52.553c0-11.61 9.412-21.021 21.021-21.021h21.021c11.61 0 21.021 9.412 21.021 21.021h21.021c.001-23.22-18.822-42.043-42.041-42.043z"/></g></g></g></g></svg>