<svg height="32px" xmlns="http://www.w3.org/2000/svg" xmlns:xlink="http://www.w3.org/1999/xlink" viewBox="0 0 512 512" xml:space="preserve"><path d="M490.667,234.667H21.333C9.551,234.667,0,244.218,0,256s9.551,21.333,21.333,21.333h469.333  c11.782,0,21.333-9.551,21.333-21.333S502.449,234.667,490.667,234.667z"/><path d="M256,192c47.131,0,85.333-38.202,85.333-85.333S303.131,21.333,256,21.333s-85.333,38.202-85.333,85.333  S208.869,192,256,192z M256,64c23.567,0,42.667,19.099,42.667,42.667S279.567,149.333,256,149.333s-42.667-19.099-42.667-42.667  S232.433,64,256,64z"/><path d="M256,320c-47.131,0-85.333,38.202-85.333,85.333s38.202,85.333,85.333,85.333s85.333-38.202,85.333-85.333  S303.131,320,256,320z M256,448c-23.567,0-42.667-19.099-42.667-42.667s19.099-42.667,42.667-42.667s42.667,19.099,42.667,42.667  S279.567,448,256,448z"/></svg>