<svg height="32px" viewBox="0 0 512 512" xmlns="http://www.w3.org/2000/svg"><path d="m247.171875 0h17.65625c4.875 0 8.828125 3.953125 8.828125 8.828125v79.449219c0 4.875-3.953125 8.824218-8.828125 8.824218h-17.65625c-4.875 0-8.828125-3.949218-8.828125-8.824218v-79.449219c0-4.875 3.953125-8.828125 8.828125-8.828125zm0 0"/><path d="m247.171875 414.898438h17.65625c4.875 0 8.828125 3.949218 8.828125 8.824218v79.449219c0 4.875-3.953125 8.828125-8.828125 8.828125h-17.65625c-4.875 0-8.828125-3.953125-8.828125-8.828125v-79.449219c0-4.875 3.953125-8.824218 8.828125-8.824218zm0 0"/><path d="m423.722656 238.34375h79.449219c4.875 0 8.828125 3.953125 8.828125 8.828125v17.65625c0 4.875-3.953125 8.828125-8.828125 8.828125h-79.449219c-4.875 0-8.824218-3.953125-8.824218-8.828125v-17.65625c0-4.875 3.949218-8.828125 8.824218-8.828125zm0 0"/><path d="m8.828125 238.34375h79.449219c4.875 0 8.824218 3.953125 8.824218 8.828125v17.65625c0 4.875-3.949218 8.828125-8.824218 8.828125h-79.449219c-4.875 0-8.828125-3.953125-8.828125-8.828125v-17.65625c0-4.875 3.953125-8.828125 8.828125-8.828125zm0 0"/><path d="m482.691406 220.691406c-15.433594-98.472656-92.855468-175.609375-191.382812-190.675781v35.574219c78.992187 14.480468 140.882812 76.15625 155.632812 155.101562zm0 0"/><path d="m30.101562 220.691406h35.664063c14.742187-78.65625 76.269531-140.183594 154.925781-154.925781v-35.664063c-98.203125 15.347657-175.242187 92.386719-190.589844 190.589844zm0 0"/><path d="m482.691406 291.308594h-35.75c-14.75 78.945312-76.640625 140.621094-155.632812 155.101562v35.574219c98.527344-15.066406 175.949218-92.203125 191.382812-190.675781zm0 0"/><path d="m220.691406 481.898438v-35.664063c-78.65625-14.742187-140.183594-76.269531-154.925781-154.925781h-35.664063c15.347657 98.203125 92.386719 175.242187 190.589844 190.589844zm0 0"/><path d="m304.726562 203.476562-19.066406 12.710938c-4.324218 2.929688-9.429687 4.5-14.652344 4.503906h-30.015624c-5.289063-.019531-10.453126-1.617187-14.828126-4.59375l-18.890624-12.621094c-15.285157 1.648438-30.382813 4.691407-45.109376 9.089844l-3.179687 1.0625c-.367187.15625-.753906.273438-1.148437.351563 2.648437 27.277343 11.917968 48.550781 27.542968 59.675781 12.757813 10.726562 31.382813 10.726562 44.136719 0 11.832031-11.828125 18.539063-17.746094 26.484375-17.746094s14.652344 5.917969 26.484375 17.746094c12.753906 10.726562 31.378906 10.726562 44.136719 0 15.710937-11.125 24.894531-32.222656 27.542968-59.675781-.265624-.089844-.621093-.175781-.882812-.265625-.882812-.351563-1.679688-.617188-2.5625-.882813-14.992188-4.585937-30.394531-7.71875-45.992188-9.355469zm0 0"/><path d="m326.621094 326.621094c9.59375-9.519532 15.796875-21.925782 17.65625-35.3125l.617187-9.972656c-2.511719 2.429687-5.195312 4.671874-8.035156 6.707031-9.835937 7.148437-21.648437 11.066406-33.808594 11.210937-12.324219.234375-24.226562-4.503906-33.015625-13.152344-4.289062-4.539062-8.988281-8.675781-14.035156-12.359374-5.046875 3.683593-9.746094 7.820312-14.035156 12.359374-8.789063 8.648438-20.691406 13.386719-33.015625 13.152344-12.160157-.144531-23.972657-4.0625-33.808594-11.210937-2.839844-2.035157-5.523437-4.277344-8.035156-6.707031l.617187 9.972656c1.75 16.050781 7.855469 31.3125 17.65625 44.140625l26.484375 26.480469c7.179688 6.558593 16.800781 9.765624 26.480469 8.828124h35.3125c6.894531-.203124 13.351562-3.429687 17.652344-8.828124zm-90.835938 15.09375c-3.480468 3.414062-9.054687 3.414062-12.535156 0l-17.65625-17.652344c-3.460938-3.464844-3.460938-9.074219 0-12.535156 3.460938-3.464844 9.074219-3.464844 12.535156 0l17.65625 17.652344c3.441406 3.46875 3.441406 9.066406 0 12.535156zm37.871094 2.5625c-2.34375-.011719-4.589844-.929688-6.269531-2.5625-3.441407-3.46875-3.441407-9.066406 0-12.535156l17.65625-17.652344c3.460937-3.464844 9.074219-3.464844 12.535156 0 3.460937 3.460937 3.460937 9.070312 0 12.535156l-17.65625 17.652344c-1.679687 1.632812-3.925781 2.550781-6.265625 2.5625zm0 0"/><path d="m359.195312 197.03125c3.75 1.304688 7.910157-.082031 10.128907-3.378906s1.9375-7.671875-.683594-10.65625l-31.074219-30.898438c-1.382812-1.316406-3.140625-2.179687-5.03125-2.46875l-58.261718-8.300781c-.40625-.070313-.824219-.101563-1.234376-.085937h-34.078124c-.410157-.015626-.828126.015624-1.234376.085937l-58.261718 8.300781c-1.910156.285156-3.675782 1.183594-5.03125 2.558594l-30.984375 30.808594c-2.519531 3.023437-2.730469 7.351562-.519531 10.605468 2.210937 3.257813 6.3125 4.65625 10.050781 3.429688 1.238281-.441406 2.472656-.792969 3.796875-1.234375 16.9375-5.164063 34.359375-8.566406 51.996094-10.152344 1.988281-.164062 3.972656.332031 5.648437 1.410157l21.714844 14.480468c1.433593.96875 3.125 1.492188 4.855469 1.5h30.015624c1.730469-.007812 3.421876-.53125 4.855469-1.5l21.714844-14.480468c1.675781-1.078126 3.660156-1.574219 5.648437-1.410157 17.671876 1.542969 35.128907 4.945313 52.082032 10.152344 1.324218.351563 2.648437.792969 3.886718 1.234375zm0 0"/></svg>