<?xml version="1.0" standalone="no"?>
<!DOCTYPE svg PUBLIC "-//W3C//DTD SVG 20010904//EN"
 "http://www.w3.org/TR/2001/REC-SVG-20010904/DTD/svg10.dtd">
<svg version="1.0" xmlns="http://www.w3.org/2000/svg"
 width="128.000000pt" height="128.000000pt" viewBox="0 0 128.000000 128.000000"
 preserveAspectRatio="xMidYMid meet">

<g transform="translate(0.000000,128.000000) scale(0.100000,-0.100000)"
fill="#000000" stroke="none">
<path d="M472 1231 c-112 -32 -191 -79 -273 -162 -121 -120 -179 -263 -179
-439 0 -84 26 -210 48 -232 11 -11 50 7 96 45 l29 23 -14 55 c-62 252 95 511
346 570 28 6 55 13 62 15 13 3 37 109 29 130 -7 19 -65 17 -144 -5z"/>
<path d="M706 1242 c-9 -9 -7 -98 3 -124 7 -18 22 -27 60 -37 111 -28 239
-142 294 -261 48 -102 49 -260 2 -371 -8 -22 70 -99 101 -99 18 0 26 13 49 82
54 165 44 320 -32 478 -50 105 -168 223 -273 273 -74 36 -193 70 -204 59z"/>
<path d="M475 841 c-79 -20 -115 -60 -115 -130 0 -43 35 -88 77 -102 21 -6
108 -13 193 -15 85 -1 159 -3 163 -3 5 -1 7 -13 5 -28 l-3 -28 -185 -5 -184
-5 -33 -43 c-18 -24 -33 -47 -33 -52 0 -5 102 -8 228 -7 213 2 229 3 268 24
46 24 64 60 64 122 0 85 -53 107 -263 110 -82 1 -155 5 -163 8 -8 3 -14 15
-12 27 3 20 9 21 174 26 l172 5 41 53 41 52 -202 -1 c-112 -1 -216 -4 -233 -8z"/>
<path d="M190 350 c-29 -10 -59 -24 -67 -33 -14 -14 -13 -18 6 -45 36 -52 148
-148 209 -180 190 -102 430 -94 619 20 62 37 163 133 163 154 0 18 -55 52 -97
60 -29 5 -39 0 -84 -40 -186 -168 -457 -159 -636 19 l-62 62 -51 -17z"/>
</g>
</svg>
