<svg enable-background="new 0 0 512.015 512.015" height="32px" viewBox="0 0 512.015 512.015" xmlns="http://www.w3.org/2000/svg"><g><path d="m296.009 286c78.851 0 143-64.149 143-143s-64.149-143-143-143-143 64.149-143 143 64.15 143 143 143zm0-256c62.309 0 113 50.691 113 113s-50.691 113-113 113-113-50.691-113-113 50.692-113 113-113z"/><g><path d="m312.662 128.32c-7.474-2.644-19.662-7.085-25.769-11.874-.37-.291-1.062-2.032-.576-4.619.234-1.242 1.308-5.388 5.332-6.601 6.214-1.883 12.112-.646 15.982 2.22 6.109 5.563 15.57 5.14 21.156-.956 5.579-6.089 5.182-15.535-.872-21.139 0 0-6.95-6.188-16.888-9.116v-1.235c0-8.284-6.716-15-15-15s-15 6.716-15 15v2.17c-26.962 9.806-33.302 46.688-12.646 62.884 9.41 7.378 22.857 12.507 34.272 16.547 7.436 2.63 8.191 7.962 7.517 11.973-.751 4.463-4.596 12.034-14.244 12.097-10.002.064-12.375-.303-19.675-5.081-6.933-4.536-16.228-2.597-20.766 4.336-4.537 6.932-2.596 16.229 4.336 20.766 7.974 5.219 14.29 7.805 21.205 9.016v1.443c0 8.284 6.716 15 15 15s15-6.716 15-15v-3.139c36.343-13.135 41.165-65.71 1.636-79.692z"/></g><path d="m434.057 292.013-171.958 39.129c-3.935-3.574-8.453-6.576-13.458-8.828l-88.298-39.612c-25.683-11.558-55.079-11.417-80.576.352l-70.97 32.294c-7.541 3.431-10.872 12.325-7.44 19.865 3.431 7.541 12.325 10.873 19.865 7.44l71.044-32.328c17.682-8.161 38.008-8.257 55.782-.259l88.298 39.612c7.717 3.473 12.663 11.19 12.663 19.585 0 15.524-15.979 26.027-30.29 19.585l-76.349-34.357c-7.557-3.401-16.435-.031-19.834 7.523-3.4 7.555-.031 16.435 7.523 19.834l76.349 34.357c38.402 17.282 80.441-16.523 71.419-57.878 112.005-25.486 163.529-37.193 164.244-37.405 20.217-5.976 39.938 9.207 39.938 29.806 0 10.932-5.842 21.184-15.212 26.735l-161.604 95.18c-17.047 10.1-37.549 12.137-56.249 5.587l-123.98-43.391c-3.341-1.169-6.988-1.119-10.295.141l-105 40c-7.742 2.949-11.626 11.616-8.677 19.357 2.949 7.742 11.616 11.627 19.357 8.677l99.878-38.049 118.803 41.579c26.54 9.296 56.279 6.825 81.421-8.072l161.604-95.179c18.477-10.947 29.954-31.088 29.954-52.565 0-40.22-38.517-70.031-77.952-58.715z"/></g></svg>