<svg height="32px" viewBox="0 0 512 512" xmlns="http://www.w3.org/2000/svg"><path d="m310 512h-190c-66.168 0-120-53.832-120-120v-272c0-66.168 53.832-120 120-120h272c66.168 0 120 53.832 120 120v191.5c0 11.046-8.954 20-20 20s-20-8.954-20-20v-191.5c0-44.112-35.888-80-80-80h-272c-44.112 0-80 35.888-80 80v272c0 44.112 35.888 80 80 80h190c11.046 0 20 8.954 20 20s-8.954 20-20 20zm102-386c0-11.046-8.954-20-20-20h-183c-11.046 0-20 8.954-20 20s8.954 20 20 20h183c11.046 0 20-8.954 20-20zm0 80c0-11.046-8.954-20-20-20h-272c-11.046 0-20 8.954-20 20s8.954 20 20 20h272c11.046 0 20-8.954 20-20zm-200 80c0-11.046-8.954-20-20-20h-72c-11.046 0-20 8.954-20 20s8.954 20 20 20h72c11.046 0 20-8.954 20-20zm-112-162c0 13.807 11.193 25 25 25s25-11.193 25-25-11.193-25-25-25-25 11.193-25 25zm390.619 366.618c28.462-28.462 28.462-74.774 0-103.237l-70.109-70.108c-20.263-20.264-45.827-33.942-73.926-39.559l-56.664-11.326c-6.554-1.313-13.334.742-18.062 5.47-4.728 4.729-6.78 11.506-5.47 18.063l11.326 56.664c5.617 28.1 19.296 53.662 39.558 73.926l70.109 70.108c13.788 13.787 32.12 21.381 51.619 21.381s37.831-7.594 51.619-21.382zm-151.875-173.68c20.329 4.063 38.822 13.958 53.481 28.618l70.109 70.108c12.867 12.867 12.867 33.803 0 46.67-6.232 6.233-14.52 9.666-23.334 9.666s-17.102-3.433-23.334-9.666l-70.109-70.108c-14.659-14.66-24.555-33.153-28.618-53.481l-5.447-27.253z"/></svg>